<svg width="148" height="38" viewBox="0 0 148 38" fill="none" xmlns="http://www.w3.org/2000/svg">
<path d="M42.5577 1.09626C40.1958 0.328877 37.5997 0 35.1101 0C30.9607 0 26.4922 0.877005 23.4067 3.28877C20.3213 0.877005 15.8528 0 11.7034 0C7.554 0 3.08543 0.877005 0 3.28877V35.4091C0 35.9572 0.531972 36.5053 1.06394 36.5053C1.27673 36.5053 1.38313 36.3957 1.59591 36.3957C4.46856 34.9706 8.61794 33.984 11.7034 33.984C15.8528 33.984 20.3213 34.861 23.4067 37.2727C26.2794 35.4091 31.4927 33.984 35.1101 33.984C38.6211 33.984 42.2385 34.6417 45.2176 36.2861C45.4304 36.3957 45.5368 36.3957 45.7496 36.3957C46.2815 36.3957 46.8135 35.8476 46.8135 35.2995V3.28877C45.5368 2.30214 44.1536 1.64439 42.5577 1.09626ZM42.5577 30.6952C40.217 29.9278 37.6636 29.5989 35.1101 29.5989C31.4927 29.5989 26.2794 31.0241 23.4067 32.8877V7.6738C26.2794 5.81016 31.4927 4.38503 35.1101 4.38503C37.6636 4.38503 40.217 4.7139 42.5577 5.48128V30.6952Z" fill="white"/>
<path d="M35.1099 13.155C36.9824 13.155 38.7912 13.3523 40.4296 13.725V10.3924C38.7486 10.0635 36.9399 9.86621 35.1099 9.86621C31.4925 9.86621 28.2156 10.502 25.5344 11.686V15.3256C27.9389 13.9224 31.2797 13.155 35.1099 13.155Z" fill="white"/>
<path d="M25.5344 17.5181V21.1577C27.9389 19.7545 31.2797 18.9871 35.1099 18.9871C36.9824 18.9871 38.7912 19.1845 40.4296 19.5572V16.2246C38.7486 15.8957 36.9399 15.6984 35.1099 15.6984C31.4925 15.6984 28.2156 16.3561 25.5344 17.5181Z" fill="white"/>
<path d="M35.1099 21.5524C31.4925 21.5524 28.2156 22.1883 25.5344 23.3722V27.0118C27.9389 25.6086 31.2797 24.8412 35.1099 24.8412C36.9824 24.8412 38.7912 25.0385 40.4296 25.4113V22.0786C38.7486 21.7278 36.9399 21.5524 35.1099 21.5524Z" fill="white"/>
<path d="M51.77 26.198C50.45 26.198 49.46 25.826 48.8 25.082C48.152 24.338 47.798 23.228 47.738 21.752L50.024 21.302C50.06 22.226 50.204 22.934 50.456 23.426C50.72 23.906 51.128 24.146 51.68 24.146C52.088 24.146 52.388 24.026 52.58 23.786C52.784 23.534 52.886 23.198 52.886 22.778C52.886 22.202 52.754 21.716 52.49 21.32C52.238 20.912 51.836 20.468 51.284 19.988L49.448 18.386C48.884 17.906 48.458 17.39 48.17 16.838C47.894 16.286 47.756 15.626 47.756 14.858C47.756 13.718 48.086 12.836 48.746 12.212C49.418 11.576 50.342 11.258 51.518 11.258C52.778 11.258 53.678 11.618 54.218 12.338C54.77 13.046 55.088 14.006 55.172 15.218L52.886 15.614C52.85 14.822 52.736 14.228 52.544 13.832C52.364 13.424 52.004 13.22 51.464 13.22C51.08 13.22 50.78 13.352 50.564 13.616C50.348 13.868 50.24 14.192 50.24 14.588C50.24 15.056 50.33 15.452 50.51 15.776C50.702 16.088 51.008 16.424 51.428 16.784L53.246 18.386C53.93 18.974 54.464 19.604 54.848 20.276C55.232 20.948 55.424 21.728 55.424 22.616C55.424 23.312 55.268 23.93 54.956 24.47C54.656 25.01 54.23 25.436 53.678 25.748C53.126 26.048 52.49 26.198 51.77 26.198ZM59.9805 26.162C58.8285 26.162 57.9825 25.844 57.4425 25.208C56.9025 24.56 56.6325 23.606 56.6325 22.346V19.25C56.6325 17.978 56.9025 17.024 57.4425 16.388C57.9945 15.752 58.8405 15.434 59.9805 15.434C61.1565 15.434 61.9845 15.764 62.4645 16.424C62.9565 17.084 63.2025 18.08 63.2025 19.412V20.906H59.0625V22.958C59.0625 23.462 59.1345 23.828 59.2785 24.056C59.4345 24.284 59.6745 24.398 59.9985 24.398C60.3105 24.398 60.5325 24.29 60.6645 24.074C60.8085 23.846 60.8805 23.504 60.8805 23.048V22.166H63.1845V22.886C63.1845 23.954 62.9145 24.77 62.3745 25.334C61.8345 25.886 61.0365 26.162 59.9805 26.162ZM60.8805 19.7V18.71C60.8805 18.17 60.8145 17.786 60.6825 17.558C60.5505 17.318 60.3165 17.198 59.9805 17.198C59.6325 17.198 59.3925 17.324 59.2605 17.576C59.1285 17.828 59.0625 18.296 59.0625 18.98V19.7H60.8805ZM67.9957 26.162C66.8317 26.162 65.9857 25.838 65.4577 25.19C64.9297 24.53 64.6657 23.588 64.6657 22.364V19.232C64.6657 17.996 64.9297 17.054 65.4577 16.406C65.9857 15.758 66.8317 15.434 67.9957 15.434C69.0997 15.434 69.9037 15.698 70.4077 16.226C70.9237 16.754 71.1817 17.558 71.1817 18.638V19.502H68.8777V18.584C68.8777 18.044 68.8117 17.672 68.6797 17.468C68.5597 17.264 68.3377 17.162 68.0137 17.162C67.6657 17.162 67.4257 17.288 67.2937 17.54C67.1737 17.792 67.1137 18.254 67.1137 18.926V22.742C67.1137 23.39 67.1797 23.834 67.3117 24.074C67.4557 24.314 67.6897 24.434 68.0137 24.434C68.3497 24.434 68.5777 24.326 68.6977 24.11C68.8177 23.882 68.8777 23.522 68.8777 23.03V21.914H71.1817V22.904C71.1817 23.972 70.9237 24.782 70.4077 25.334C69.8917 25.886 69.0877 26.162 67.9957 26.162ZM75.959 26.162C74.843 26.162 74.009 25.856 73.457 25.244C72.905 24.62 72.629 23.72 72.629 22.544V19.052C72.629 17.876 72.905 16.982 73.457 16.37C74.009 15.746 74.843 15.434 75.959 15.434C77.075 15.434 77.909 15.746 78.461 16.37C79.025 16.982 79.307 17.876 79.307 19.052V22.544C79.307 23.72 79.025 24.62 78.461 25.244C77.909 25.856 77.075 26.162 75.959 26.162ZM75.977 24.47C76.349 24.47 76.595 24.326 76.715 24.038C76.835 23.738 76.895 23.3 76.895 22.724V18.89C76.895 18.314 76.835 17.876 76.715 17.576C76.595 17.276 76.349 17.126 75.977 17.126C75.593 17.126 75.341 17.276 75.221 17.576C75.101 17.876 75.041 18.314 75.041 18.89V22.724C75.041 23.3 75.101 23.738 75.221 24.038C75.341 24.326 75.593 24.47 75.977 24.47ZM81.0005 15.596H83.4485V16.622C84.2765 15.83 85.1165 15.434 85.9685 15.434C86.5565 15.434 86.9945 15.65 87.2825 16.082C87.5825 16.514 87.7325 17.06 87.7325 17.72V26H85.2845V18.206C85.2845 17.87 85.2305 17.624 85.1225 17.468C85.0265 17.312 84.8465 17.234 84.5825 17.234C84.2945 17.234 83.9165 17.402 83.4485 17.738V26H81.0005V15.596ZM91.8658 26.162C91.0258 26.162 90.3958 25.868 89.9758 25.28C89.5678 24.68 89.3638 23.738 89.3638 22.454V19.268C89.3638 18.092 89.5558 17.162 89.9398 16.478C90.3358 15.782 90.9718 15.434 91.8478 15.434C92.5198 15.434 93.1438 15.71 93.7198 16.262V11.42H96.1858V26H93.7198V25.262C93.1438 25.862 92.5258 26.162 91.8658 26.162ZM92.7478 24.47C93.0598 24.47 93.3838 24.356 93.7198 24.128V17.45C93.4078 17.222 93.0838 17.108 92.7478 17.108C92.1238 17.108 91.8118 17.654 91.8118 18.746V22.634C91.8118 23.222 91.8778 23.678 92.0098 24.002C92.1418 24.314 92.3878 24.47 92.7478 24.47ZM98.2132 11.42H101.813C103.193 11.42 104.249 11.702 104.981 12.266C105.713 12.83 106.079 13.796 106.079 15.164C106.079 16.052 105.899 16.748 105.539 17.252C105.179 17.744 104.657 18.044 103.973 18.152C105.653 18.476 106.493 19.676 106.493 21.752C106.493 23.156 106.151 24.218 105.467 24.938C104.783 25.646 103.769 26 102.425 26H98.2132V11.42ZM101.777 17.378C102.545 17.378 103.067 17.21 103.343 16.874C103.631 16.526 103.775 15.968 103.775 15.2C103.775 14.456 103.589 13.952 103.217 13.688C102.857 13.412 102.251 13.274 101.399 13.274H100.859V17.378H101.777ZM101.885 24.128C102.665 24.128 103.205 23.942 103.505 23.57C103.805 23.198 103.955 22.586 103.955 21.734C103.955 20.858 103.787 20.222 103.451 19.826C103.127 19.418 102.575 19.214 101.795 19.214H100.859V24.128H101.885ZM111.221 26.162C110.105 26.162 109.271 25.856 108.719 25.244C108.167 24.62 107.891 23.72 107.891 22.544V19.052C107.891 17.876 108.167 16.982 108.719 16.37C109.271 15.746 110.105 15.434 111.221 15.434C112.337 15.434 113.171 15.746 113.723 16.37C114.287 16.982 114.569 17.876 114.569 19.052V22.544C114.569 23.72 114.287 24.62 113.723 25.244C113.171 25.856 112.337 26.162 111.221 26.162ZM111.239 24.47C111.611 24.47 111.857 24.326 111.977 24.038C112.097 23.738 112.157 23.3 112.157 22.724V18.89C112.157 18.314 112.097 17.876 111.977 17.576C111.857 17.276 111.611 17.126 111.239 17.126C110.855 17.126 110.603 17.276 110.483 17.576C110.363 17.876 110.303 18.314 110.303 18.89V22.724C110.303 23.3 110.363 23.738 110.483 24.038C110.603 24.326 110.855 24.47 111.239 24.47ZM119.412 26.162C118.296 26.162 117.462 25.856 116.91 25.244C116.358 24.62 116.082 23.72 116.082 22.544V19.052C116.082 17.876 116.358 16.982 116.91 16.37C117.462 15.746 118.296 15.434 119.412 15.434C120.528 15.434 121.362 15.746 121.914 16.37C122.478 16.982 122.76 17.876 122.76 19.052V22.544C122.76 23.72 122.478 24.62 121.914 25.244C121.362 25.856 120.528 26.162 119.412 26.162ZM119.43 24.47C119.802 24.47 120.048 24.326 120.168 24.038C120.288 23.738 120.348 23.3 120.348 22.724V18.89C120.348 18.314 120.288 17.876 120.168 17.576C120.048 17.276 119.802 17.126 119.43 17.126C119.046 17.126 118.794 17.276 118.674 17.576C118.554 17.876 118.494 18.314 118.494 18.89V22.724C118.494 23.3 118.554 23.738 118.674 24.038C118.794 24.326 119.046 24.47 119.43 24.47ZM124.49 11.402H126.92V19.79L129.584 15.596H132.266L129.656 19.772L132.212 26H129.638L127.748 20.87L126.92 22.022V25.982H124.49V11.402Z" fill="#FFFEFE"/>
</svg>
