<svg width="180" height="180" viewBox="0 0 180 180" fill="none" xmlns="http://www.w3.org/2000/svg">
<path d="M44 90C44 64.5949 64.5949 44 90 44C115.405 44 136 64.5949 136 90V131H44V90Z" fill="#DFE1E3"/>
<path fill-rule="evenodd" clip-rule="evenodd" d="M128 123V90C128 69.0132 110.987 52 90 52C69.0132 52 52 69.0132 52 90V123H128ZM90 44C64.5949 44 44 64.5949 44 90V131H136V90C136 64.5949 115.405 44 90 44Z" fill="#22282F"/>
<path fill-rule="evenodd" clip-rule="evenodd" d="M97 45V41.5C97 37.9101 94.0899 35 90.5 35C86.9101 35 84 37.9101 84 41.5V45H97ZM90.5 27C82.4919 27 76 33.4919 76 41.5V53H105V41.5C105 33.4919 98.5081 27 90.5 27Z" fill="#22282F"/>
<path fill-rule="evenodd" clip-rule="evenodd" d="M65.0196 131C65.0066 130.668 65 130.335 65 130V123H115V130C115 130.335 114.993 130.668 114.98 131C114.455 144.344 103.472 155 90 155C76.5278 155 65.5445 144.344 65.0196 131ZM106.971 131C106.453 139.923 99.0531 147 90 147C80.9469 147 73.5465 139.923 73.0289 131H106.971Z" fill="#22282F"/>
<path fill-rule="evenodd" clip-rule="evenodd" d="M28 127C28 124.791 29.7909 123 32 123L149 123C151.209 123 153 124.791 153 127C153 129.209 151.209 131 149 131L32 131C29.7909 131 28 129.209 28 127Z" fill="#22282F"/>
</svg>
