<svg width="180" height="180" viewBox="0 0 180 180" fill="none" xmlns="http://www.w3.org/2000/svg">
<path d="M35 42L47.3905 48.5369C48.8288 49.2957 50.4304 49.6923 52.0566 49.6923H137.226C138.4 49.6923 139.564 49.8988 140.666 50.3024L146 52.2564V137C146 139.761 143.761 142 141 142H65C48.4315 142 35 128.569 35 112V42Z" fill="#DEE0E3"/>
<path fill-rule="evenodd" clip-rule="evenodd" d="M146 58.2564L140.666 56.3024C139.564 55.8988 138.4 55.6923 137.226 55.6923H52.0566C50.4304 55.6923 48.8288 55.2957 47.3905 54.5369L35 48V118C35 134.569 48.4315 148 65 148H141C143.761 148 146 145.761 146 143V58.2564ZM138 140V63.8458L137.914 63.8143C137.694 63.7336 137.461 63.6923 137.226 63.6923H52.0566C49.1295 63.6923 46.2465 62.9784 43.6575 61.6126L43 61.2657V118C43 130.15 52.8497 140 65 140H138Z" fill="#22282F"/>
<path fill-rule="evenodd" clip-rule="evenodd" d="M142.625 54.1421C138.492 50.7923 138.447 45.1676 142.526 41.7696L144.22 40.3586C147.44 37.6767 145.224 33 140.733 33H52.5081C42.8387 33 35 39.7157 35 48C35 56.2843 42.8387 63 52.5081 63H140.988C145.511 63 147.712 58.2643 144.425 55.6008L142.625 54.1421ZM133.122 41H52.5081C46.0518 41 43 45.2497 43 48C43 50.7503 46.0518 55 52.5081 55H133.209C130.958 50.5935 130.921 45.4366 133.122 41Z" fill="#22282F"/>
<path fill-rule="evenodd" clip-rule="evenodd" d="M56 82C56 79.7909 57.7909 78 60 78H122C124.209 78 126 79.7909 126 82C126 84.2091 124.209 86 122 86H60C57.7909 86 56 84.2091 56 82Z" fill="#22282F"/>
</svg>
