<svg width="180" height="180" viewBox="0 0 180 180" fill="none" xmlns="http://www.w3.org/2000/svg">
<path d="M39 68.1954L142 41L111.828 125.724L91.5404 109.698L71.2525 132V93.6724L39 68.1954Z" fill="#DFE1E3"/>
<path fill-rule="evenodd" clip-rule="evenodd" d="M144.945 38.2928C145.949 39.3852 146.266 40.9439 145.768 42.3419L115.596 127.066C115.164 128.28 114.173 129.212 112.934 129.568C111.695 129.925 110.36 129.662 109.349 128.863L91.9887 115.15L74.2114 134.692C73.0995 135.914 71.3506 136.327 69.8095 135.731C68.2685 135.135 67.2525 133.652 67.2525 132V95.6101L36.5206 71.3342C35.3313 70.3948 34.7751 68.864 35.0839 67.3803C35.3928 65.8966 36.5136 64.7148 37.9789 64.3279L140.979 37.1325C142.414 36.7537 143.94 37.2003 144.945 38.2928ZM75.2525 101.93V121.659L85.6957 110.179L75.2525 101.93ZM47.7618 70.0191L71.3246 88.6319L123.011 50.1509L47.7618 70.0191ZM133.805 52.0879L109.931 119.128L77.8245 93.7664L133.805 52.0879Z" fill="black"/>
</svg>
